<svg id="SvgjsSvg1001" width="288" height="288" xmlns="http://www.w3.org/2000/svg" version="1.1" xmlns:xlink="http://www.w3.org/1999/xlink" xmlns:svgjs="http://svgjs.com/svgjs"><defs id="SvgjsDefs1002"></defs><g id="SvgjsG1008"><svg xmlns="http://www.w3.org/2000/svg" width="288" height="288" data-name="Layer 1" viewBox="0 0 24 24"><path d="m22.916.691a2.992 2.992 0 0 0 -2.469-.638l-11.999 2.247a3 3 0 0 0 -2.448 2.951v11.305a3.959 3.959 0 0 0 -2-.556 4 4 0 1 0 4 4v-10.58l14-2.62v6.761a3.959 3.959 0 0 0 -2-.561 4 4 0 1 0 4 4v-14a3 3 0 0 0 -1.084-2.309z" fill="#ffeb70" class="color000 svgShape"></path></svg></g></svg>